<svg version="1.2" xmlns="http://www.w3.org/2000/svg" viewBox="0 0 1336 602" width="436" height="196">
	<title>easy-digital service-logo6</title>
	<defs>
		<linearGradient id="g1" x2="1" gradientUnits="userSpaceOnUse" gradientTransform="matrix(0,648.376,-9.397,0,657.616,83.704)">
			<stop offset="0" stop-color="#006dc4"/>
			<stop offset="1" stop-color="#048feb"/>
		</linearGradient>
	</defs>
	<style>
		.s0 { fill: #117cc4 } 
		.s1 { fill: #fb7c06 } 
		.s2 { fill: #ffffff } 
		.s3 { fill: #382a56 } 
		.s4 { fill: #f58314 } 
		.s5 { fill: #f58314;stroke: #f58314;paint-order:stroke fill markers;stroke-linejoin: round;stroke-width: 14 } 
		.s6 { fill: url(#g1) } 
	</style>
	<path id="Shape 1" class="s0" d="m0.5 110c0-60.8 49.2-110 110-110h392.7c60.8 0 110 49.2 110 110v381.8c0 60.7-49.2 110-110 110h-392.7c-60.8 0-110-49.3-110-110z"/>
	<g id="Folder 1">
	</g>
	<g id="&lt;Group&gt;">
		<g id="&lt;Group&gt;" style="opacity: .3;mix-blend-mode: multiply">
		</g>
	</g>
	<g id="&lt;Group&gt;">
		<filter id="f0">
			<feFlood flood-color="#ffffff" flood-opacity="1" />
			<feBlend mode="normal" in2="SourceGraphic"/>
			<feComposite in2="SourceAlpha" operator="in" />
		</filter>
		<g id="&lt;Group&gt;" filter="url(#f0)">
			<filter id="f1">
				<feFlood flood-color="#f58314" flood-opacity="1" />
				<feBlend mode="normal" in2="SourceGraphic"/>
				<feComposite in2="SourceAlpha" operator="in" />
			</filter>
			<g id="&lt;Group&gt;" filter="url(#f1)">
				<path id="&lt;Path&gt;" class="s1" d="m485 293h-6.9c0-25.2-5.3-49.2-15-70.7-26.6-60.1-86.4-102-155.5-102-69.1 0-128.9 41.9-155.5 102-9.7 21.5-15.1 45.5-15.1 70.7q0 0.1 0 0.2c0.1 14.6-10.2 27-24.5 29.2l-9.5 1.4c-18.8 2.8-35.8-11.8-35.8-30.8 0-134.2 107.8-243.4 240.4-243.4 108.3 0 200 72.8 230.1 172.7 10.5 35.2-15.9 70.7-52.7 70.7z"/>
			</g>
			<path id="&lt;Path&gt;" class="s2" d="m503.5 210.9c-33.6-75.8-108.9-128.7-196.1-128.7-87.3 0-162.6 52.9-196.2 128.7-12.2 27.2-19 57.4-19 89.2 0 7.9 0.5 15.7 1.4 23.6 3 0.5 6.1 0.5 9.2 0.1l8.9-1.3c14.5-2.2 25.1-14.6 25.1-29.2v-0.3c0-25.2 5.4-49.2 15-70.7 26.7-60.1 86.4-102 155.6-102q0 0 0.1 0 0 0 0.1 0c69.1 0 128.9 41.9 155.5 102 9.7 21.5 15 45.5 15 70.7h29.7c8 0 14.3-6.9 13.6-14.9-2.4-23.7-8.5-46.4-17.9-67.2z"/>
			<path id="&lt;Path&gt;" class="s2" d="m471.7 421.1l-7.8-6c-11.2-8.8-27.4-8.2-37.6 1.8-31.5 30.9-74.4 48.8-118.7 48.8-50.2 0-98.2-23-130.3-61.4-9.2-11-25.2-13.5-37.4-5.8l-8.3 5.1c-15.9 10-19.8 31.9-7.7 46.3 45.3 54.1 112.9 86.5 183.7 86.5 62.3 0 122.5-25.1 166.9-68.3 13.5-13.2 12-35.4-2.8-47z"/>
			<path id="&lt;Path&gt;" class="s1" d="m471.7 421.1l-7.8-6c-11.2-8.8-27.4-8.2-37.6 1.8-31.5 30.9-74.4 48.8-118.7 48.8-50.2 0-98.2-23-130.3-61.4-9.2-11-25.2-13.5-37.4-5.8l-8.3 5.1c-4.3 2.7-7.6 6.3-10.1 10.3 45.3 55.8 114 89.5 186.1 89.5 64.6 0 127-27.1 171.8-73.4-1.9-3.3-4.5-6.3-7.7-8.9z"/>
			<path id="&lt;Path&gt;" class="s2" d="m545.5 258q0-0.2 0-0.4c-1.8-12.1-4.4-23.9-7.8-35.3h-385.6c-5.1 11.1-8.9 23-11.4 35.3-2.4 11.4-3.7 23.3-3.7 35.4h377.7c18.7 0 33.5-16.5 30.8-35z"/>
			<path id="&lt;Path&gt;" class="s2" d="m508.1 222.3h-356c-5.1 11.1-8.9 23-11.4 35.3h377.5c-2.3-12.2-5.8-24-10.1-35.3z"/>
		</g>
	</g>
	<path id="Easy" class="s0" aria-label="Easy"  d="m768.4 180.6v-35.4h71v-27.5h-71v-33.2h80.4v-28.5h-115.6v153h118.5v-28.4zm231.4 28.4h37.1l-68.4-153h-34.9l-68.2 153h36.3l13.5-32.8h71zm-73.2-59.6l24.3-58.6 24.2 58.6zm182.3 62.2c43.7 0 64.9-21.8 64.9-47.4 0-56.1-89-36.7-89-64.9 0-9.6 8.1-17.4 29.1-17.4 13.5 0 28.2 3.9 42.4 12l10.9-26.9c-14.2-9-33.9-13.6-53.1-13.6-43.5 0-64.4 21.7-64.4 47.7 0 56.8 88.9 37.1 88.9 65.8 0 9.3-8.5 16.3-29.5 16.3-18.4 0-37.6-6.5-50.5-15.9l-12 26.6c13.5 10.5 38 17.7 62.3 17.7zm224.4-155.5h-34.8l-40.8 67.9-40.9-67.9h-37.6l59.3 98.3v54.6h35.4v-54.2z"/>
	<path id="digital  Service " class="s0" aria-label="digital 
Service "  d="m732.7 367h46.6c33.6 0 56.6-20.2 56.6-51.3 0-31-23-51.2-56.6-51.2h-46.6zm23.8-19.5v-63.6h21.7c20.3 0 33.6 12.2 33.6 31.8 0 19.6-13.3 31.8-33.6 31.8zm97.2 19.5h23.7v-102.6h-23.7zm117.3-22.8c-6 3.2-12 4.4-18.4 4.4-19.6 0-33.3-13.6-33.3-32.8 0-19.5 13.7-32.8 33.6-32.8 10.4 0 19 3.6 26.5 11.5l15.2-14c-9.9-11.6-24.9-17.8-42.9-17.8-32.7 0-56.4 22.2-56.4 53.1 0 30.9 23.7 53 56 53 14.6 0 30.1-4.5 41.4-13v-41.6h-21.7zm43.7 22.8h23.7v-102.5h-23.7zm69.3 0h23.7v-83.2h32.8v-19.4h-89.3v19.4h32.8zm140.7 0h24.9l-45.8-102.6h-23.5l-45.7 102.6h24.4l9-22h47.7zm-49.1-40l16.2-39.2 16.3 39.2zm84.7 40h75.1v-19.3h-51.4v-83.2h-23.7z"/>
	<path id="digital  Service " class="s3" aria-label="digital 
Service "  d=""/>
	<path id="digital  Service " class="s4" aria-label="digital 
Service "  d="m766.4 538.8c29.3 0 43.5-14.7 43.5-31.8 0-37.7-59.6-24.6-59.6-43.5 0-6.5 5.4-11.7 19.5-11.7 9.1 0 18.9 2.6 28.4 8l7.3-18c-9.5-6-22.7-9.1-35.6-9.1-29.1 0-43.2 14.5-43.2 31.9 0 38.1 59.7 24.9 59.7 44.1 0 6.3-5.8 11-19.8 11-12.3 0-25.2-4.4-33.9-10.7l-8 17.9c9.1 7 25.5 11.9 41.7 11.9zm76.2-20.8v-23.8h47.6v-18.4h-47.6v-22.3h53.9v-19h-77.5v102.5h79.4v-19zm158.3 19l-23-33c13.4-5.7 21.1-16.9 21.1-32.3 0-23-17.1-37.2-44.5-37.2h-44.4v102.5h23.8v-28.6h20.6 1.2l19.8 28.6zm-26-65.3c0 11.1-7.3 17.8-21.8 17.8h-19.3v-35.7h19.3c14.5 0 21.8 6.6 21.8 17.9zm110.6-37.2l-31.6 73.2-31.2-73.2h-25.6l44.2 102.5h23.4l44.4-102.5zm24.9 102.5h23.7v-102.5h-23.7zm89.9 1.7c17.9 0 32.7-6.4 42.4-18.3l-15.3-14c-6.8 8-15.5 12.1-25.7 12.1-19.2 0-32.9-13.5-32.9-32.8 0-19.3 13.7-32.8 32.9-32.8 10.2 0 18.9 4.1 25.7 12l15.3-14.1c-9.7-11.7-24.5-18.1-42.2-18.1-31.9 0-55.7 22.1-55.7 53 0 30.9 23.8 53 55.5 53zm74.7-20.8v-23.7h47.6v-18.5h-47.6v-22.2h53.9v-19.1h-77.4v102.6h79.4v-19.1z"/>
	<path id="&lt;Path&gt;" class="s5" d="m504.4 397.1c-19.6 0-35.5-16.1-35.5-36 0-19.9 15.9-35.9 35.5-35.9 19.7 0 35.5 16 35.5 35.9 0 19.9-15.8 36-35.5 36z"/>
	<path id="Shape 2" class="s4" d="m676.8 56.1h7v484.3h-7z"/>
	<path id="Shape 2 copy" class="s6" d="m650.5 56.1h7v484.3h-7z"/>
</svg>